<mxfile host="Electron" modified="2023-06-15T16:15:46.068Z" agent="Mozilla/5.0 (Windows NT 10.0; Win64; x64) AppleWebKit/537.36 (KHTML, like Gecko) draw.io/21.4.0 Chrome/112.0.5615.204 Electron/24.5.1 Safari/537.36" etag="G0_hGkwZv4O-g1wgw9Ym" version="21.4.0" type="device">
  <diagram id="C5RBs43oDa-KdzZeNtuy" name="Page-1">
    <mxGraphModel dx="2219" dy="629" grid="0" gridSize="10" guides="1" tooltips="1" connect="1" arrows="1" fold="1" page="1" pageScale="1" pageWidth="1169" pageHeight="827" math="0" shadow="0">
      <root>
        <mxCell id="WIyWlLk6GJQsqaUBKTNV-0" />
        <mxCell id="WIyWlLk6GJQsqaUBKTNV-1" parent="WIyWlLk6GJQsqaUBKTNV-0" />
        <mxCell id="29aQyccWw9olyFtA1omQ-1" value="StartMenu" style="swimlane;fontStyle=1;align=center;verticalAlign=top;childLayout=stackLayout;horizontal=1;startSize=26;horizontalStack=0;resizeParent=1;resizeParentMax=0;resizeLast=0;collapsible=1;marginBottom=0;whiteSpace=wrap;html=1;" parent="WIyWlLk6GJQsqaUBKTNV-1" vertex="1">
          <mxGeometry x="6" y="287" width="281" height="305" as="geometry" />
        </mxCell>
        <mxCell id="29aQyccWw9olyFtA1omQ-2" value="- background :&amp;nbsp; Image&lt;br&gt;- singleButton : CustomButton&lt;br&gt;- multiButton : CustomButton&lt;br&gt;- optionButton : CustomButton&lt;br&gt;- authors : CustomButton&lt;br&gt;- audioOn : boolean&lt;br&gt;- clip : Clip&lt;br&gt;- buttonHeight : int&lt;br&gt;- buttonCount : int&lt;br&gt;- masterGame : Game" style="text;strokeColor=none;fillColor=none;align=left;verticalAlign=top;spacingLeft=4;spacingRight=4;overflow=hidden;rotatable=0;points=[[0,0.5],[1,0.5]];portConstraint=eastwest;whiteSpace=wrap;html=1;" parent="29aQyccWw9olyFtA1omQ-1" vertex="1">
          <mxGeometry y="26" width="281" height="154" as="geometry" />
        </mxCell>
        <mxCell id="29aQyccWw9olyFtA1omQ-3" value="" style="line;strokeWidth=1;fillColor=none;align=left;verticalAlign=middle;spacingTop=-1;spacingLeft=3;spacingRight=3;rotatable=0;labelPosition=right;points=[];portConstraint=eastwest;strokeColor=inherit;" parent="29aQyccWw9olyFtA1omQ-1" vertex="1">
          <mxGeometry y="180" width="281" height="8" as="geometry" />
        </mxCell>
        <mxCell id="29aQyccWw9olyFtA1omQ-4" value="+ StartMenu(game:Game) &amp;lt;&amp;lt;Constructor&amp;gt;&amp;gt;&lt;br&gt;+ paintComponent(g:Graphics) : void&lt;br&gt;+ actionPerformed(e:ActionEvent):void&lt;br&gt;+ playTheme():void&lt;br&gt;+ calculateY(buttonCount:int):int&lt;br&gt;+ configButtons():void&lt;br&gt;+ createCustomButton(text:String):CustomButton&lt;br&gt;" style="text;strokeColor=none;fillColor=none;align=left;verticalAlign=top;spacingLeft=4;spacingRight=4;overflow=hidden;rotatable=0;points=[[0,0.5],[1,0.5]];portConstraint=eastwest;whiteSpace=wrap;html=1;" parent="29aQyccWw9olyFtA1omQ-1" vertex="1">
          <mxGeometry y="188" width="281" height="117" as="geometry" />
        </mxCell>
        <mxCell id="29aQyccWw9olyFtA1omQ-23" style="edgeStyle=none;shape=connector;rounded=0;orthogonalLoop=1;jettySize=auto;html=1;entryX=0;entryY=0.5;entryDx=0;entryDy=0;dashed=1;labelBackgroundColor=default;strokeColor=default;fontFamily=Helvetica;fontSize=11;fontColor=default;endArrow=open;endSize=12;" parent="29aQyccWw9olyFtA1omQ-1" source="29aQyccWw9olyFtA1omQ-4" target="29aQyccWw9olyFtA1omQ-4" edge="1">
          <mxGeometry relative="1" as="geometry" />
        </mxCell>
        <mxCell id="29aQyccWw9olyFtA1omQ-5" value="JPanel" style="html=1;whiteSpace=wrap;" parent="WIyWlLk6GJQsqaUBKTNV-1" vertex="1">
          <mxGeometry x="349" y="461" width="110" height="50" as="geometry" />
        </mxCell>
        <mxCell id="29aQyccWw9olyFtA1omQ-6" value="Extends" style="endArrow=block;endSize=16;endFill=0;html=1;rounded=0;exitX=1;exitY=0.5;exitDx=0;exitDy=0;entryX=0;entryY=0.5;entryDx=0;entryDy=0;" parent="WIyWlLk6GJQsqaUBKTNV-1" source="29aQyccWw9olyFtA1omQ-2" target="29aQyccWw9olyFtA1omQ-5" edge="1">
          <mxGeometry width="160" relative="1" as="geometry">
            <mxPoint x="612" y="337" as="sourcePoint" />
            <mxPoint x="682" y="105" as="targetPoint" />
          </mxGeometry>
        </mxCell>
        <mxCell id="29aQyccWw9olyFtA1omQ-8" value="ActionListener" style="html=1;whiteSpace=wrap;" parent="WIyWlLk6GJQsqaUBKTNV-1" vertex="1">
          <mxGeometry x="349" y="398" width="110" height="50" as="geometry" />
        </mxCell>
        <mxCell id="29aQyccWw9olyFtA1omQ-12" value="" style="endArrow=block;dashed=1;endFill=0;endSize=12;html=1;rounded=0;labelBackgroundColor=default;strokeColor=default;fontFamily=Helvetica;fontSize=11;fontColor=default;shape=connector;entryX=0;entryY=0.5;entryDx=0;entryDy=0;exitX=1;exitY=0.5;exitDx=0;exitDy=0;" parent="WIyWlLk6GJQsqaUBKTNV-1" source="29aQyccWw9olyFtA1omQ-2" target="29aQyccWw9olyFtA1omQ-8" edge="1">
          <mxGeometry width="160" relative="1" as="geometry">
            <mxPoint x="612" y="337" as="sourcePoint" />
            <mxPoint x="384" y="100" as="targetPoint" />
          </mxGeometry>
        </mxCell>
        <mxCell id="29aQyccWw9olyFtA1omQ-13" value="CustomButton" style="swimlane;fontStyle=1;align=center;verticalAlign=top;childLayout=stackLayout;horizontal=1;startSize=26;horizontalStack=0;resizeParent=1;resizeParentMax=0;resizeLast=0;collapsible=1;marginBottom=0;whiteSpace=wrap;html=1;fontFamily=Helvetica;fontSize=11;fontColor=default;" parent="WIyWlLk6GJQsqaUBKTNV-1" vertex="1">
          <mxGeometry x="6" y="141" width="329" height="108" as="geometry" />
        </mxCell>
        <mxCell id="29aQyccWw9olyFtA1omQ-14" value="- buttonWidth:int&lt;br&gt;- buttonHeight:int" style="text;strokeColor=none;fillColor=none;align=left;verticalAlign=top;spacingLeft=4;spacingRight=4;overflow=hidden;rotatable=0;points=[[0,0.5],[1,0.5]];portConstraint=eastwest;whiteSpace=wrap;html=1;fontSize=11;fontFamily=Helvetica;fontColor=default;" parent="29aQyccWw9olyFtA1omQ-13" vertex="1">
          <mxGeometry y="26" width="329" height="36" as="geometry" />
        </mxCell>
        <mxCell id="29aQyccWw9olyFtA1omQ-15" value="" style="line;strokeWidth=1;fillColor=none;align=left;verticalAlign=middle;spacingTop=-1;spacingLeft=3;spacingRight=3;rotatable=0;labelPosition=right;points=[];portConstraint=eastwest;strokeColor=inherit;fontFamily=Helvetica;fontSize=11;fontColor=default;" parent="29aQyccWw9olyFtA1omQ-13" vertex="1">
          <mxGeometry y="62" width="329" height="8" as="geometry" />
        </mxCell>
        <mxCell id="29aQyccWw9olyFtA1omQ-16" value="+ CustomButton(text:String, buttonCount:int) &amp;lt;&amp;lt;constructor&amp;gt;&lt;br&gt;+ calculateY(buttonCount:int):int" style="text;strokeColor=none;fillColor=none;align=left;verticalAlign=top;spacingLeft=4;spacingRight=4;overflow=hidden;rotatable=0;points=[[0,0.5],[1,0.5]];portConstraint=eastwest;whiteSpace=wrap;html=1;fontSize=11;fontFamily=Helvetica;fontColor=default;" parent="29aQyccWw9olyFtA1omQ-13" vertex="1">
          <mxGeometry y="70" width="329" height="38" as="geometry" />
        </mxCell>
        <mxCell id="29aQyccWw9olyFtA1omQ-18" value="JButton" style="html=1;whiteSpace=wrap;fontFamily=Helvetica;fontSize=11;fontColor=default;" parent="WIyWlLk6GJQsqaUBKTNV-1" vertex="1">
          <mxGeometry x="109" y="53" width="110" height="50" as="geometry" />
        </mxCell>
        <mxCell id="29aQyccWw9olyFtA1omQ-19" value="Extends" style="endArrow=block;endSize=16;endFill=0;html=1;rounded=0;dashed=1;labelBackgroundColor=default;strokeColor=default;fontFamily=Helvetica;fontSize=11;fontColor=default;shape=connector;exitX=0.5;exitY=0;exitDx=0;exitDy=0;entryX=0.5;entryY=1;entryDx=0;entryDy=0;" parent="WIyWlLk6GJQsqaUBKTNV-1" source="29aQyccWw9olyFtA1omQ-13" target="29aQyccWw9olyFtA1omQ-18" edge="1">
          <mxGeometry width="160" relative="1" as="geometry">
            <mxPoint x="275" y="236" as="sourcePoint" />
            <mxPoint x="246" y="68" as="targetPoint" />
          </mxGeometry>
        </mxCell>
        <mxCell id="29aQyccWw9olyFtA1omQ-22" value="" style="endArrow=open;startArrow=circlePlus;endFill=0;startFill=0;endSize=8;html=1;rounded=0;dashed=1;labelBackgroundColor=default;strokeColor=default;fontFamily=Helvetica;fontSize=11;fontColor=default;shape=connector;" parent="WIyWlLk6GJQsqaUBKTNV-1" source="29aQyccWw9olyFtA1omQ-13" target="29aQyccWw9olyFtA1omQ-1" edge="1">
          <mxGeometry width="160" relative="1" as="geometry">
            <mxPoint x="324" y="477" as="sourcePoint" />
            <mxPoint x="372" y="477" as="targetPoint" />
          </mxGeometry>
        </mxCell>
        <mxCell id="29aQyccWw9olyFtA1omQ-24" value="&lt;p style=&quot;margin:0px;margin-top:4px;text-align:center;&quot;&gt;&lt;b&gt;GameController&lt;/b&gt;&lt;/p&gt;&lt;hr size=&quot;1&quot;&gt;&lt;p style=&quot;margin:0px;margin-left:4px;&quot;&gt;- colorSet1:Color[]&lt;/p&gt;&lt;p style=&quot;margin:0px;margin-left:4px;&quot;&gt;- colorSet2:Color[]&lt;/p&gt;&lt;p style=&quot;margin:0px;margin-left:4px;&quot;&gt;- timer:Timer&lt;/p&gt;&lt;p style=&quot;margin:0px;margin-left:4px;&quot;&gt;- language:String[]&lt;/p&gt;&lt;p style=&quot;margin:0px;margin-left:4px;&quot;&gt;- dimensions:String[]&lt;/p&gt;&lt;p style=&quot;margin:0px;margin-left:4px;&quot;&gt;- img:ImageIcon&lt;/p&gt;&lt;p style=&quot;margin:0px;margin-left:4px;&quot;&gt;- logoLabel:JLabel&lt;/p&gt;&lt;p style=&quot;margin:0px;margin-left:4px;&quot;&gt;- logoPanel:JPanel&lt;/p&gt;&lt;p style=&quot;margin:0px;margin-left:4px;&quot;&gt;- languagePanel:JPanel&lt;/p&gt;&lt;p style=&quot;margin:0px;margin-left:4px;&quot;&gt;- languageLabel:JLabel&lt;/p&gt;&lt;p style=&quot;margin:0px;margin-left:4px;&quot;&gt;- languageBox:JComboBox&amp;lt;?&amp;gt;&lt;/p&gt;&lt;p style=&quot;margin:0px;margin-left:4px;&quot;&gt;- designPanel:JPanel&lt;/p&gt;&lt;p style=&quot;margin:0px;margin-left:4px;&quot;&gt;- designButton:JButton&lt;/p&gt;&lt;p style=&quot;margin:0px;margin-left:4px;&quot;&gt;- randButton:JButton&lt;/p&gt;&lt;p style=&quot;margin:0px;margin-left:4px;&quot;&gt;- dimensionPanel:JPanel&lt;/p&gt;&lt;p style=&quot;margin:0px;margin-left:4px;&quot;&gt;- dimensionLabel:JLabel&lt;/p&gt;&lt;p style=&quot;margin:0px;margin-left:4px;&quot;&gt;- dimensionBox:JComboBox&amp;lt;?&amp;gt;&lt;/p&gt;&lt;p style=&quot;margin:0px;margin-left:4px;&quot;&gt;- historyBox:JTextArea&lt;/p&gt;&lt;p style=&quot;margin:0px;margin-left:4px;&quot;&gt;- timerPanel:JPanel&lt;/p&gt;&lt;p style=&quot;margin:0px;margin-left:4px;&quot;&gt;- timerLabel:JLabel&lt;/p&gt;&lt;p style=&quot;margin:0px;margin-left:4px;&quot;&gt;- timerBox:JLabel&lt;/p&gt;&lt;p style=&quot;margin:0px;margin-left:4px;&quot;&gt;- resetPanel:JPanel&lt;/p&gt;&lt;p style=&quot;margin:0px;margin-left:4px;&quot;&gt;- resetButton:JButton&lt;/p&gt;&lt;p style=&quot;margin:0px;margin-left:4px;&quot;&gt;- playPanel:JPanel&lt;/p&gt;&lt;p style=&quot;margin:0px;margin-left:4px;&quot;&gt;- playButton:JButton&lt;/p&gt;&lt;p style=&quot;margin:0px;margin-left:4px;&quot;&gt;- dimension:int&lt;/p&gt;&lt;p style=&quot;margin:0px;margin-left:4px;&quot;&gt;- masterGame:JFrame&lt;/p&gt;&lt;p style=&quot;margin:0px;margin-left:4px;&quot;&gt;- boardWest:Board&lt;/p&gt;&lt;p style=&quot;margin:0px;margin-left:4px;&quot;&gt;- boardEast:Board&lt;/p&gt;&lt;hr size=&quot;1&quot;&gt;&lt;p style=&quot;margin:0px;margin-left:4px;&quot;&gt;+ GameController(masterGame:JFrame) &amp;lt;&amp;lt;constructor&amp;gt;&amp;gt;&lt;/p&gt;&lt;p style=&quot;margin:0px;margin-left:4px;&quot;&gt;+ configurePanels():void&lt;/p&gt;&lt;p style=&quot;margin:0px;margin-left:4px;&quot;&gt;+ configurePanel(panel:JPanel):void&lt;/p&gt;&lt;p style=&quot;margin:0px;margin-left:4px;&quot;&gt;+ addComponentsToPanel():void&lt;/p&gt;&lt;p style=&quot;margin:0px;margin-left:4px;&quot;&gt;+ actionPerformed(e:ActionEvent):void&lt;/p&gt;&lt;p style=&quot;margin:0px;margin-left:4px;&quot;&gt;+ removeExistingBoard():void&lt;/p&gt;&lt;p style=&quot;margin:0px;margin-left:4px;&quot;&gt;+ createGame(dimension:int):void&lt;/p&gt;&lt;p style=&quot;margin:0px;margin-left:4px;&quot;&gt;+ setLanguage(language:String):void&lt;/p&gt;" style="verticalAlign=top;align=left;overflow=fill;fontSize=12;fontFamily=Helvetica;html=1;whiteSpace=wrap;fontColor=default;" parent="WIyWlLk6GJQsqaUBKTNV-1" vertex="1">
          <mxGeometry x="506" y="4" width="322" height="664" as="geometry" />
        </mxCell>
        <mxCell id="29aQyccWw9olyFtA1omQ-26" value="Extends" style="endArrow=block;endSize=16;endFill=0;html=1;rounded=0;exitX=0;exitY=0.75;exitDx=0;exitDy=0;entryX=1;entryY=0.5;entryDx=0;entryDy=0;" parent="WIyWlLk6GJQsqaUBKTNV-1" source="29aQyccWw9olyFtA1omQ-24" target="29aQyccWw9olyFtA1omQ-5" edge="1">
          <mxGeometry width="160" relative="1" as="geometry">
            <mxPoint x="499" y="333" as="sourcePoint" />
            <mxPoint x="541" y="404" as="targetPoint" />
          </mxGeometry>
        </mxCell>
        <mxCell id="29aQyccWw9olyFtA1omQ-27" value="" style="endArrow=block;dashed=1;endFill=0;endSize=12;html=1;rounded=0;labelBackgroundColor=default;strokeColor=default;fontFamily=Helvetica;fontSize=11;fontColor=default;shape=connector;entryX=1;entryY=0.5;entryDx=0;entryDy=0;exitX=0;exitY=0.75;exitDx=0;exitDy=0;" parent="WIyWlLk6GJQsqaUBKTNV-1" source="29aQyccWw9olyFtA1omQ-24" target="29aQyccWw9olyFtA1omQ-8" edge="1">
          <mxGeometry width="160" relative="1" as="geometry">
            <mxPoint x="518" y="266" as="sourcePoint" />
            <mxPoint x="359" y="433" as="targetPoint" />
          </mxGeometry>
        </mxCell>
        <mxCell id="29aQyccWw9olyFtA1omQ-28" value="Game" style="swimlane;fontStyle=1;align=center;verticalAlign=top;childLayout=stackLayout;horizontal=1;startSize=26;horizontalStack=0;resizeParent=1;resizeParentMax=0;resizeLast=0;collapsible=1;marginBottom=0;whiteSpace=wrap;html=1;fontFamily=Helvetica;fontSize=11;fontColor=default;" parent="WIyWlLk6GJQsqaUBKTNV-1" vertex="1">
          <mxGeometry x="70" y="641" width="160" height="100" as="geometry" />
        </mxCell>
        <mxCell id="29aQyccWw9olyFtA1omQ-29" value="- player_1:Board&lt;br&gt;- player_2:Board" style="text;strokeColor=none;fillColor=none;align=left;verticalAlign=top;spacingLeft=4;spacingRight=4;overflow=hidden;rotatable=0;points=[[0,0.5],[1,0.5]];portConstraint=eastwest;whiteSpace=wrap;html=1;fontSize=11;fontFamily=Helvetica;fontColor=default;" parent="29aQyccWw9olyFtA1omQ-28" vertex="1">
          <mxGeometry y="26" width="160" height="40" as="geometry" />
        </mxCell>
        <mxCell id="29aQyccWw9olyFtA1omQ-30" value="" style="line;strokeWidth=1;fillColor=none;align=left;verticalAlign=middle;spacingTop=-1;spacingLeft=3;spacingRight=3;rotatable=0;labelPosition=right;points=[];portConstraint=eastwest;strokeColor=inherit;fontFamily=Helvetica;fontSize=11;fontColor=default;" parent="29aQyccWw9olyFtA1omQ-28" vertex="1">
          <mxGeometry y="66" width="160" height="8" as="geometry" />
        </mxCell>
        <mxCell id="29aQyccWw9olyFtA1omQ-31" value="+ Game()&amp;lt;&amp;lt;constructor&amp;gt;&amp;gt;" style="text;strokeColor=none;fillColor=none;align=left;verticalAlign=top;spacingLeft=4;spacingRight=4;overflow=hidden;rotatable=0;points=[[0,0.5],[1,0.5]];portConstraint=eastwest;whiteSpace=wrap;html=1;fontSize=11;fontFamily=Helvetica;fontColor=default;" parent="29aQyccWw9olyFtA1omQ-28" vertex="1">
          <mxGeometry y="74" width="160" height="26" as="geometry" />
        </mxCell>
        <mxCell id="29aQyccWw9olyFtA1omQ-32" value="JFrame" style="html=1;whiteSpace=wrap;fontFamily=Helvetica;fontSize=11;fontColor=default;" parent="WIyWlLk6GJQsqaUBKTNV-1" vertex="1">
          <mxGeometry x="351" y="564" width="110" height="50" as="geometry" />
        </mxCell>
        <mxCell id="29aQyccWw9olyFtA1omQ-33" value="Extends" style="endArrow=block;endSize=16;endFill=0;html=1;rounded=0;exitX=1;exitY=0.5;exitDx=0;exitDy=0;entryX=0;entryY=0.5;entryDx=0;entryDy=0;" parent="WIyWlLk6GJQsqaUBKTNV-1" source="29aQyccWw9olyFtA1omQ-29" target="29aQyccWw9olyFtA1omQ-32" edge="1">
          <mxGeometry width="160" relative="1" as="geometry">
            <mxPoint x="251" y="730" as="sourcePoint" />
            <mxPoint x="120" y="673" as="targetPoint" />
          </mxGeometry>
        </mxCell>
        <mxCell id="29aQyccWw9olyFtA1omQ-34" value="1" style="endArrow=open;html=1;endSize=12;startArrow=diamondThin;startSize=14;startFill=1;edgeStyle=orthogonalEdgeStyle;align=left;verticalAlign=bottom;rounded=0;dashed=1;labelBackgroundColor=default;strokeColor=default;fontFamily=Helvetica;fontSize=11;fontColor=default;shape=connector;exitX=0.441;exitY=0;exitDx=0;exitDy=0;exitPerimeter=0;entryX=0.479;entryY=1.003;entryDx=0;entryDy=0;entryPerimeter=0;" parent="WIyWlLk6GJQsqaUBKTNV-1" source="29aQyccWw9olyFtA1omQ-28" target="29aQyccWw9olyFtA1omQ-4" edge="1">
          <mxGeometry x="-1" y="3" relative="1" as="geometry">
            <mxPoint x="294" y="582" as="sourcePoint" />
            <mxPoint x="454" y="582" as="targetPoint" />
          </mxGeometry>
        </mxCell>
        <mxCell id="fVzt4_XDsnI2FJfPw3hg-0" value="component.Board" style="shape=folder;fontStyle=1;spacingTop=10;tabWidth=40;tabHeight=14;tabPosition=left;html=1;whiteSpace=wrap;" vertex="1" parent="WIyWlLk6GJQsqaUBKTNV-1">
          <mxGeometry x="335" y="741" width="120" height="50" as="geometry" />
        </mxCell>
        <mxCell id="fVzt4_XDsnI2FJfPw3hg-1" value="Use" style="endArrow=open;endSize=12;dashed=1;html=1;rounded=0;entryX=0;entryY=0;entryDx=0;entryDy=32;entryPerimeter=0;" edge="1" parent="WIyWlLk6GJQsqaUBKTNV-1" source="29aQyccWw9olyFtA1omQ-31" target="fVzt4_XDsnI2FJfPw3hg-0">
          <mxGeometry width="160" relative="1" as="geometry">
            <mxPoint x="75" y="790" as="sourcePoint" />
            <mxPoint x="235" y="790" as="targetPoint" />
          </mxGeometry>
        </mxCell>
        <mxCell id="fVzt4_XDsnI2FJfPw3hg-2" value="Use" style="endArrow=open;endSize=12;dashed=1;html=1;rounded=0;entryX=0;entryY=0;entryDx=120;entryDy=32;entryPerimeter=0;exitX=0.442;exitY=0.999;exitDx=0;exitDy=0;exitPerimeter=0;" edge="1" parent="WIyWlLk6GJQsqaUBKTNV-1" source="29aQyccWw9olyFtA1omQ-24" target="fVzt4_XDsnI2FJfPw3hg-0">
          <mxGeometry width="160" relative="1" as="geometry">
            <mxPoint x="560" y="759" as="sourcePoint" />
            <mxPoint x="646" y="797" as="targetPoint" />
          </mxGeometry>
        </mxCell>
      </root>
    </mxGraphModel>
  </diagram>
</mxfile>
